<svg width="16" height="16" viewBox="0 0 16 16" fill="none" xmlns="http://www.w3.org/2000/svg">
<g id="Arrow Maps">
<path id="Vector" d="M2.68739 5.94463L13.0054 3.05529C13.0624 3.03935 13.1226 3.03887 13.1798 3.05389C13.2371 3.06892 13.2893 3.09891 13.3311 3.14079C13.3729 3.18267 13.4028 3.23493 13.4177 3.29219C13.4327 3.34946 13.4321 3.40966 13.4161 3.46663L10.5274 13.784C10.509 13.8503 10.4706 13.9094 10.4173 13.953C10.364 13.9966 10.2985 14.0227 10.2298 14.0276C10.1611 14.0325 10.0926 14.016 10.0337 13.9803C9.97477 13.9447 9.92831 13.8917 9.90072 13.8286L7.73539 8.90729C7.70195 8.83083 7.64105 8.76969 7.56472 8.73596L2.64339 6.57063C2.58029 6.54309 2.52726 6.4967 2.49159 6.43781C2.45592 6.37893 2.43936 6.31044 2.44418 6.24176C2.449 6.17308 2.47497 6.10758 2.51852 6.05426C2.56207 6.00094 2.62106 5.96307 2.68739 5.94463Z" stroke="#AE171E" stroke-width="1.5" stroke-linecap="round" stroke-linejoin="round"/>
</g>
</svg>
