<svg width="24" height="24" viewBox="0 0 24 24" fill="none" xmlns="http://www.w3.org/2000/svg">
<g id="Arsip">
<path id="Vector" d="M20.25 8.25001V20.25C20.25 20.6478 20.092 21.0294 19.8107 21.3107C19.5294 21.592 19.1478 21.75 18.75 21.75H5.25C4.85218 21.75 4.47064 21.592 4.18934 21.3107C3.90804 21.0294 3.75 20.6478 3.75 20.25V3.75001C3.75 3.35219 3.90804 2.97066 4.18934 2.68935C4.47064 2.40805 4.85218 2.25001 5.25 2.25001H14.25L20.25 8.25001ZM20.25 8.25001C20.2511 8.05048 20.1737 7.85851 20.0344 7.71564L20.25 8.25001ZM14.25 2.75002L14.2528 2.75C14.3202 2.74962 14.385 2.77547 14.4336 2.82201L19.678 8.06636C19.7245 8.11498 19.7504 8.17982 19.75 8.24719V8.25001V20.25C19.75 20.5152 19.6446 20.7696 19.4571 20.9571C19.2696 21.1447 19.0152 21.25 18.75 21.25H5.25C4.98478 21.25 4.73043 21.1447 4.54289 20.9571C4.35536 20.7696 4.25 20.5152 4.25 20.25V3.75001C4.25 3.4848 4.35536 3.23044 4.54289 3.04291C4.73043 2.85537 4.98478 2.75001 5.25 2.75001L14.25 2.75002ZM15.3536 4.45583L14.5 3.60228V4.80939V7.50001V8.00001H15H17.6906H18.8977L18.0442 7.14646L15.3536 4.45583ZM18.75 20.75H19.25V20.25V9.00001V8.50001H18.75H14.25C14.1837 8.50001 14.1201 8.47367 14.0732 8.42679C14.0263 8.37991 14 8.31632 14 8.25001V3.75001V3.25001H13.5H5.25H4.75V3.75001V20.25V20.75H5.25H18.75ZM8.82322 12.5732L8.46967 12.2197L8.82322 12.5732C8.87011 12.5264 8.93369 12.5 9 12.5H15C15.0663 12.5 15.1299 12.5264 15.1768 12.5732C15.2237 12.6201 15.25 12.6837 15.25 12.75C15.25 12.8163 15.2237 12.8799 15.1768 12.9268C15.1299 12.9737 15.0663 13 15 13H9C8.9337 13 8.87011 12.9737 8.82322 12.9268C8.77634 12.8799 8.75 12.8163 8.75 12.75C8.75 12.6837 8.77634 12.6201 8.82322 12.5732ZM15.25 15.75C15.25 15.8163 15.2237 15.8799 15.1768 15.9268C15.1299 15.9737 15.0663 16 15 16H9C8.93369 16 8.87011 15.9737 8.82322 15.9268C8.77634 15.8799 8.75 15.8163 8.75 15.75C8.75 15.6837 8.77634 15.6201 8.82322 15.5732C8.87011 15.5264 8.93369 15.5 9 15.5H15C15.0663 15.5 15.1299 15.5264 15.1768 15.5732C15.2237 15.6201 15.25 15.6837 15.25 15.75Z" stroke="#AE171E"/>
</g>
</svg>
