<svg width="36" height="36" viewBox="0 0 36 36" fill="none" xmlns="http://www.w3.org/2000/svg">
<g id="Back">
<path id="Vector" d="M16.3125 28.9499L6.4125 19.0499C6.2625 18.8999 6.156 18.7374 6.093 18.5624C6.031 18.3874 6 18.1999 6 17.9999C6 17.7999 6.031 17.6124 6.093 17.4374C6.156 17.2624 6.2625 17.0999 6.4125 16.9499L16.3125 7.04988C16.5875 6.77488 16.931 6.63088 17.343 6.61788C17.756 6.60588 18.1125 6.74988 18.4125 7.04988C18.7125 7.32488 18.869 7.66838 18.882 8.08038C18.894 8.49338 18.75 8.84988 18.45 9.14988L11.1 16.4999H27.8625C28.2875 16.4999 28.644 16.6434 28.932 16.9304C29.219 17.2184 29.3625 17.5749 29.3625 17.9999C29.3625 18.4249 29.219 18.7809 28.932 19.0679C28.644 19.3559 28.2875 19.4999 27.8625 19.4999H11.1L18.45 26.8499C18.725 27.1249 18.869 27.4749 18.882 27.8999C18.894 28.3249 18.75 28.6749 18.45 28.9499C18.175 29.2499 17.825 29.3999 17.4 29.3999C16.975 29.3999 16.6125 29.2499 16.3125 28.9499Z" fill="black"/>
</g>
</svg>
