<svg width="29" height="29" viewBox="0 0 29 29" fill="none" xmlns="http://www.w3.org/2000/svg">
<g id="iconoir:basketball-field">
<g id="Group">
<path id="Vector" d="M14.5 6.33325H25.4667C25.5586 6.33325 25.6497 6.35136 25.7346 6.38654C25.8195 6.42171 25.8967 6.47328 25.9617 6.53828C26.0267 6.60328 26.0782 6.68045 26.1134 6.76537C26.1486 6.8503 26.1667 6.94133 26.1667 7.03325V21.9666C26.1667 22.0585 26.1486 22.1495 26.1134 22.2345C26.0782 22.3194 26.0267 22.3966 25.9617 22.4616C25.8967 22.5266 25.8195 22.5781 25.7346 22.6133C25.6497 22.6485 25.5586 22.6666 25.4667 22.6666H14.5M14.5 6.33325H3.53337C3.34772 6.33325 3.16967 6.407 3.0384 6.53828C2.90712 6.66955 2.83337 6.8476 2.83337 7.03325V21.9666C2.83337 22.1522 2.90712 22.3303 3.0384 22.4616C3.16967 22.5928 3.34772 22.6666 3.53337 22.6666H14.5M14.5 6.33325V22.6666" stroke="white" stroke-width="1.5"/>
<path id="Vector_2" d="M2.83337 20.3332C4.38047 20.3332 5.8642 19.7186 6.95816 18.6246C8.05213 17.5307 8.66671 16.0469 8.66671 14.4998C8.66671 12.9527 8.05213 11.469 6.95816 10.375C5.8642 9.28109 4.38047 8.6665 2.83337 8.6665M26.1667 20.3332C24.6196 20.3332 23.1359 19.7186 22.0419 18.6246C20.948 17.5307 20.3334 16.0469 20.3334 14.4998C20.3334 12.9527 20.948 11.469 22.0419 10.375C23.1359 9.28109 24.6196 8.6665 26.1667 8.6665M14.5 17.9998C13.5718 17.9998 12.6815 17.6311 12.0252 16.9747C11.3688 16.3183 11 15.4281 11 14.4998C11 13.5716 11.3688 12.6813 12.0252 12.025C12.6815 11.3686 13.5718 10.9998 14.5 10.9998C15.4283 10.9998 16.3185 11.3686 16.9749 12.025C17.6313 12.6813 18 13.5716 18 14.4998C18 15.4281 17.6313 16.3183 16.9749 16.9747C16.3185 17.6311 15.4283 17.9998 14.5 17.9998Z" stroke="white" stroke-width="1.5" stroke-linecap="round" stroke-linejoin="round"/>
</g>
</g>
</svg>
