<svg width="29" height="29" viewBox="0 0 29 29" fill="none" xmlns="http://www.w3.org/2000/svg">
<g id="ps:book" clip-path="url(#clip0_675_10666)">
<path id="Vector" d="M4.84248 28.5H28.3054V26.1484H4.84248C3.89187 26.1484 3.41656 25.7656 3.41656 25C3.41656 24.2344 3.89187 23.8516 4.84248 23.8516H28.3054V0.5H4.84248C3.63261 0.5 2.63878 0.83724 1.861 1.51172C1.08322 2.1862 0.694336 3.01562 0.694336 4V23.8516H0.953595C0.780756 24.2891 0.694336 24.6719 0.694336 25C0.694336 25.9844 1.08322 26.8138 1.861 27.4883C2.63878 28.1628 3.63261 28.5 4.84248 28.5ZM3.41656 4C3.41656 3.23438 3.89187 2.85156 4.84248 2.85156H25.5832V21.5H4.84248C4.4968 21.5 4.0215 21.5729 3.41656 21.7188V4ZM8.99063 9.85156H21.4351V12.1484H8.99063V9.85156ZM8.99063 5.14844H21.4351V7.5H8.99063V5.14844Z" fill="white"/>
</g>
<defs>
<clipPath id="clip0_675_10666">
<rect width="28" height="28" fill="white" transform="translate(0.5 0.5)"/>
</clipPath>
</defs>
</svg>
