<svg width="34" height="24" viewBox="0 0 34 24" fill="none" xmlns="http://www.w3.org/2000/svg">
<path id="Vector" d="M30.2857 0H2.85714C2.09938 0 1.37266 0.30102 0.836838 0.836838C0.30102 1.37266 0 2.09938 0 2.85714V21.1429C0 21.9006 0.30102 22.6273 0.836838 23.1632C1.37266 23.699 2.09938 24 2.85714 24H30.2857C31.0435 24 31.7702 23.699 32.306 23.1632C32.8418 22.6273 33.1429 21.9006 33.1429 21.1429V2.85714C33.1429 2.09938 32.8418 1.37266 32.306 0.836838C31.7702 0.30102 31.0435 0 30.2857 0ZM29.7143 3.42857V6.28571H3.42857V3.42857H29.7143ZM3.42857 20.5714V9.71429H29.7143V20.5714H3.42857ZM28 17.1429C28 17.5975 27.8194 18.0335 27.4979 18.355C27.1764 18.6765 26.7404 18.8571 26.2857 18.8571H21.7143C21.2596 18.8571 20.8236 18.6765 20.5021 18.355C20.1806 18.0335 20 17.5975 20 17.1429C20 16.6882 20.1806 16.2522 20.5021 15.9307C20.8236 15.6092 21.2596 15.4286 21.7143 15.4286H26.2857C26.7404 15.4286 27.1764 15.6092 27.4979 15.9307C27.8194 16.2522 28 16.6882 28 17.1429ZM18.2857 17.1429C18.2857 17.5975 18.1051 18.0335 17.7836 18.355C17.4621 18.6765 17.0261 18.8571 16.5714 18.8571H14.8571C14.4025 18.8571 13.9664 18.6765 13.645 18.355C13.3235 18.0335 13.1429 17.5975 13.1429 17.1429C13.1429 16.6882 13.3235 16.2522 13.645 15.9307C13.9664 15.6092 14.4025 15.4286 14.8571 15.4286H16.5714C17.0261 15.4286 17.4621 15.6092 17.7836 15.9307C18.1051 16.2522 18.2857 16.6882 18.2857 17.1429Z" fill="black"/>
</svg>
