<svg width="32" height="32" viewBox="0 0 32 32" fill="none" xmlns="http://www.w3.org/2000/svg">
<g id="Group">
<path id="Vector" d="M11.2791 14.502L8.31893 11.5375C7.69491 10.9126 7.6949 9.91908 8.30293 9.2781C8.47894 9.10184 8.63895 8.92557 8.81495 8.7493C10.479 7.09879 12.2231 5.60853 14.0472 4.2785C15.8713 2.96451 17.6954 1.9069 19.5034 1.13773C21.3275 0.384585 23.0716 0 24.7357 0C25.8237 0 26.8638 0.192292 27.8238 0.576877C28.7999 0.961461 29.6959 1.57039 30.4959 2.41968C31.504 3.44524 32 4.56694 32 5.75274C32 6.20143 31.904 6.65011 31.712 7.05072C31.52 7.46735 31.232 7.83591 30.8159 8.12435L25.5837 11.842C25.1837 12.1304 24.8157 12.3388 24.4637 12.483C24.1276 12.6272 23.7916 12.7073 23.4876 12.7073C23.1036 12.7073 22.7196 12.5951 22.3516 12.3708C21.9835 12.1625 21.5995 11.858 21.2155 11.4734L19.9515 10.2556C19.7754 10.0793 19.5674 9.9992 19.3114 9.9992C19.1834 9.9992 19.0714 10.0152 18.9434 10.0473C18.8154 10.0953 18.7194 10.1434 18.6234 10.1755C18.0954 10.4639 17.4073 10.9607 16.5753 11.6657C15.7433 12.3868 14.8952 13.156 14.0472 13.9893C13.8872 14.1495 13.7272 14.3258 13.5672 14.486C12.9431 15.127 11.9191 15.143 11.2791 14.502Z" fill="#1F1F1F"/>
<path id="Vector_2" d="M5.87202 31.9999C5.424 31.9999 4.95998 31.9197 4.51196 31.7595C4.38395 31.7114 4.25594 31.6633 4.12794 31.5992C3.55191 31.3268 3.00789 30.9743 2.49586 30.5096C1.63182 29.7244 1.0078 28.8591 0.607778 27.8816C0.607778 27.8656 0.591777 27.8495 0.591777 27.8335C0.20776 26.8881 -0.000247955 25.8625 -0.000247955 24.7568C-0.000247955 23.1224 0.383768 21.3757 1.1678 19.5329C1.95184 17.6901 3.00789 15.8473 4.33595 14.0205C4.79997 13.3956 5.26399 12.7706 5.76001 12.1777L10.9922 17.4177C10.6562 17.8664 10.4002 18.267 10.2242 18.6035C10.1922 18.6836 10.1442 18.7798 10.0962 18.8919C10.0482 19.0201 10.0322 19.1483 10.0322 19.2925C10.0322 19.5649 10.1282 19.7733 10.3042 19.9495L11.5043 21.1674C11.9043 21.568 12.2083 21.9526 12.4003 22.3211C12.6243 22.6897 12.7363 23.0583 12.7363 23.4589C12.7363 23.7633 12.6723 24.0838 12.5283 24.4364C12.3843 24.7889 12.1763 25.1574 11.9043 25.5581L8.14412 30.8621C7.85611 31.2788 7.52009 31.5672 7.12007 31.7435C6.72005 31.9037 6.32004 31.9999 5.87202 31.9999Z" fill="#1F1F1F"/>
</g>
</svg>
