<svg width="24" height="24" viewBox="0 0 24 24" fill="none" xmlns="http://www.w3.org/2000/svg">
<g id="Customer Care" clip-path="url(#clip0_475_5185)">
<path id="Vector" d="M5.14265 11.9994V7.49084C5.15604 6.60461 5.34417 5.72973 5.69626 4.91633C6.04835 4.10293 6.55748 3.367 7.19447 2.7507C7.83147 2.13441 8.58382 1.64986 9.4084 1.32483C10.233 0.999794 11.1136 0.840663 11.9998 0.856551C12.886 0.840663 13.7666 0.999794 14.5912 1.32483C15.4158 1.64986 16.1681 2.13441 16.8051 2.7507C17.4421 3.367 17.9512 4.10293 18.3033 4.91633C18.6554 5.72973 18.8435 6.60461 18.8569 7.49084V11.9994M15.4284 20.9994C16.3377 20.9994 17.2097 20.6382 17.8527 19.9952C18.4957 19.3522 18.8569 18.4802 18.8569 17.5708V13.7137M15.4284 20.9994C15.4284 21.5677 15.2026 22.1128 14.8007 22.5146C14.3989 22.9165 13.8538 23.1423 13.2855 23.1423H10.7141C10.1458 23.1423 9.60071 22.9165 9.19885 22.5146C8.79698 22.1128 8.57122 21.5677 8.57122 20.9994C8.57122 20.4311 8.79698 19.886 9.19885 19.4842C9.60071 19.0823 10.1458 18.8566 10.7141 18.8566H13.2855C13.8538 18.8566 14.3989 19.0823 14.8007 19.4842C15.2026 19.886 15.4284 20.4311 15.4284 20.9994ZM2.57122 9.42798H4.28551C4.51283 9.42798 4.73085 9.51829 4.8916 9.67903C5.05234 9.83978 5.14265 10.0578 5.14265 10.2851V15.428C5.14265 15.6553 5.05234 15.8733 4.8916 16.0341C4.73085 16.1948 4.51283 16.2851 4.28551 16.2851H2.57122C2.11656 16.2851 1.68053 16.1045 1.35904 15.783C1.03755 15.4615 0.856934 15.0255 0.856934 14.5708V11.1423C0.856934 10.6876 1.03755 10.2516 1.35904 9.93008C1.68053 9.60859 2.11656 9.42798 2.57122 9.42798ZM21.4284 16.2851H19.7141C19.4867 16.2851 19.2687 16.1948 19.108 16.0341C18.9472 15.8733 18.8569 15.6553 18.8569 15.428V10.2851C18.8569 10.0578 18.9472 9.83978 19.108 9.67903C19.2687 9.51829 19.4867 9.42798 19.7141 9.42798H21.4284C21.883 9.42798 22.3191 9.60859 22.6405 9.93008C22.962 10.2516 23.1426 10.6876 23.1426 11.1423V14.5708C23.1426 15.0255 22.962 15.4615 22.6405 15.783C22.3191 16.1045 21.883 16.2851 21.4284 16.2851Z" stroke="black" stroke-width="1.5" stroke-linecap="round" stroke-linejoin="round"/>
</g>
<defs>
<clipPath id="clip0_475_5185">
<rect width="24" height="24" fill="white"/>
</clipPath>
</defs>
</svg>
