<svg width="27" height="28" viewBox="0 0 27 28" fill="none" xmlns="http://www.w3.org/2000/svg">
<path id="Vector" d="M19.0333 20.8332L18.4667 20.2665C18.2667 20.0665 18.028 19.9665 17.7507 19.9665C17.4733 19.9665 17.2342 20.0665 17.0333 20.2665C16.8333 20.4665 16.7333 20.6998 16.7333 20.9665C16.7333 21.2332 16.8333 21.4665 17.0333 21.6665L18.3333 22.9665C18.5333 23.1665 18.7667 23.2665 19.0333 23.2665C19.3 23.2665 19.5333 23.1665 19.7333 22.9665L22.9667 19.7998C23.1667 19.5998 23.2667 19.3607 23.2667 19.0825C23.2667 18.8043 23.1667 18.5656 22.9667 18.3665C22.7667 18.1665 22.5276 18.0665 22.2493 18.0665C21.9711 18.0665 21.7324 18.1665 21.5333 18.3665L19.0333 20.8332ZM5.33333 8.66651H18.6667C19.0444 8.66651 19.3613 8.53851 19.6173 8.28251C19.8733 8.02651 20.0009 7.71006 20 7.33317C20 6.9554 19.872 6.63851 19.616 6.38251C19.36 6.12651 19.0436 5.99895 18.6667 5.99984H5.33333C4.95556 5.99984 4.63867 6.12784 4.38267 6.38384C4.12667 6.63984 3.99911 6.95628 4 7.33317C4 7.71095 4.128 8.02784 4.384 8.28384C4.64 8.53984 4.95644 8.6674 5.33333 8.66651ZM20 27.3332C18.1556 27.3332 16.5831 26.683 15.2827 25.3825C13.9822 24.0821 13.3324 22.5101 13.3333 20.6665C13.3333 18.8221 13.9836 17.2496 15.284 15.9492C16.5844 14.6487 18.1564 13.999 20 13.9998C21.8444 13.9998 23.4169 14.6501 24.7173 15.9505C26.0178 17.251 26.6676 18.823 26.6667 20.6665C26.6667 22.511 26.0164 24.0834 24.716 25.3838C23.4156 26.6843 21.8436 27.3341 20 27.3332ZM0 25.8332V3.33317C0 2.59984 0.261333 1.97184 0.784 1.44917C1.30667 0.926506 1.93422 0.665617 2.66667 0.666506H21.3333C22.0667 0.666506 22.6947 0.92784 23.2173 1.45051C23.74 1.97317 24.0009 2.60073 24 3.33317V12.2332C23.5778 12.0332 23.1444 11.8665 22.7 11.7332C22.2556 11.5998 21.8 11.4998 21.3333 11.4332V3.33317H2.66667V22.0665H10.7667C10.8778 22.7554 11.0502 23.411 11.284 24.0332C11.5178 24.6554 11.8231 25.2443 12.2 25.7998C12.0889 25.8221 11.972 25.8052 11.8493 25.7492C11.7267 25.6932 11.6213 25.6212 11.5333 25.5332L10.4667 24.4665C10.3333 24.3332 10.1778 24.2665 10 24.2665C9.82222 24.2665 9.66667 24.3332 9.53333 24.4665L8.46667 25.5332C8.33333 25.6665 8.17778 25.7332 8 25.7332C7.82222 25.7332 7.66667 25.6665 7.53333 25.5332L6.46667 24.4665C6.33333 24.3332 6.17778 24.2665 6 24.2665C5.82222 24.2665 5.66667 24.3332 5.53333 24.4665L4.46667 25.5332C4.33333 25.6665 4.17778 25.7332 4 25.7332C3.82222 25.7332 3.66667 25.6665 3.53333 25.5332L2.46667 24.4665C2.33333 24.3332 2.17778 24.2665 2 24.2665C1.82222 24.2665 1.66667 24.3332 1.53333 24.4665L0.466667 25.5332L0 25.8332ZM5.33333 19.3332H10.7667C10.8333 18.8665 10.9333 18.411 11.0667 17.9665C11.2 17.5221 11.3667 17.0887 11.5667 16.6665H5.33333C4.95556 16.6665 4.63867 16.7945 4.38267 17.0505C4.12667 17.3065 3.99911 17.623 4 17.9998C4 18.3776 4.128 18.6945 4.384 18.9505C4.64 19.2065 4.95644 19.3341 5.33333 19.3332ZM5.33333 13.9998H13.4667C14.3111 13.1776 15.2947 12.5274 16.4173 12.0492C17.54 11.571 18.7342 11.3323 20 11.3332H5.33333C4.95556 11.3332 4.63867 11.4612 4.38267 11.7172C4.12667 11.9732 3.99911 12.2896 4 12.6665C4 13.0443 4.128 13.3612 4.384 13.6172C4.64 13.8732 4.95644 14.0007 5.33333 13.9998Z" fill="#1F1F1F"/>
</svg>
