<svg width="29" height="29" viewBox="0 0 29 29" fill="none" xmlns="http://www.w3.org/2000/svg">
<g id="material-symbols:event-note-outline">
<path id="Vector" d="M6.33334 26.1666C5.69167 26.1666 5.14217 25.9379 4.68484 25.4806C4.2275 25.0233 3.99922 24.4741 4 23.8333V7.49992C4 6.85825 4.22867 6.30875 4.686 5.85142C5.14334 5.39409 5.69245 5.16581 6.33334 5.16659H7.5V2.83325H9.83334V5.16659H19.1667V2.83325H21.5V5.16659H22.6667C23.3083 5.16659 23.8578 5.39525 24.3152 5.85259C24.7725 6.30992 25.0008 6.85903 25 7.49992V23.8333C25 24.4749 24.7713 25.0244 24.314 25.4818C23.8567 25.9391 23.3076 26.1674 22.6667 26.1666H6.33334ZM6.33334 23.8333H22.6667V12.1666H6.33334V23.8333ZM6.33334 9.83325H22.6667V7.49992H6.33334V9.83325ZM8.66667 16.8333V14.4999H20.3333V16.8333H8.66667ZM8.66667 21.4999V19.1666H16.8333V21.4999H8.66667Z" fill="white"/>
</g>
</svg>
