<svg width="36" height="37" viewBox="0 0 36 37" fill="none" xmlns="http://www.w3.org/2000/svg">
<g id="Instagram">
<path id="Vector" d="M11.7 3.45996H24.3C29.1 3.45996 33 7.35996 33 12.16V24.76C33 27.0673 32.0834 29.2802 30.4518 30.9118C28.8203 32.5434 26.6074 33.46 24.3 33.46H11.7C6.9 33.46 3 29.56 3 24.76V12.16C3 9.85258 3.9166 7.6397 5.54817 6.00813C7.17974 4.37657 9.39262 3.45996 11.7 3.45996ZM11.4 6.45996C9.96783 6.45996 8.59432 7.02889 7.58162 8.04158C6.56893 9.05428 6 10.4278 6 11.86V25.06C6 28.045 8.415 30.46 11.4 30.46H24.6C26.0322 30.46 27.4057 29.891 28.4184 28.8783C29.4311 27.8656 30 26.4921 30 25.06V11.86C30 8.87496 27.585 6.45996 24.6 6.45996H11.4ZM25.875 8.70996C26.3723 8.70996 26.8492 8.90751 27.2008 9.25914C27.5525 9.61077 27.75 10.0877 27.75 10.585C27.75 11.0822 27.5525 11.5592 27.2008 11.9108C26.8492 12.2624 26.3723 12.46 25.875 12.46C25.3777 12.46 24.9008 12.2624 24.5492 11.9108C24.1975 11.5592 24 11.0822 24 10.585C24 10.0877 24.1975 9.61077 24.5492 9.25914C24.9008 8.90751 25.3777 8.70996 25.875 8.70996ZM18 10.96C19.9891 10.96 21.8968 11.7501 23.3033 13.1567C24.7098 14.5632 25.5 16.4708 25.5 18.46C25.5 20.4491 24.7098 22.3567 23.3033 23.7633C21.8968 25.1698 19.9891 25.96 18 25.96C16.0109 25.96 14.1032 25.1698 12.6967 23.7633C11.2902 22.3567 10.5 20.4491 10.5 18.46C10.5 16.4708 11.2902 14.5632 12.6967 13.1567C14.1032 11.7501 16.0109 10.96 18 10.96ZM18 13.96C16.8065 13.96 15.6619 14.4341 14.818 15.278C13.9741 16.1219 13.5 17.2665 13.5 18.46C13.5 19.6534 13.9741 20.798 14.818 21.6419C15.6619 22.4859 16.8065 22.96 18 22.96C19.1935 22.96 20.3381 22.4859 21.182 21.6419C22.0259 20.798 22.5 19.6534 22.5 18.46C22.5 17.2665 22.0259 16.1219 21.182 15.278C20.3381 14.4341 19.1935 13.96 18 13.96Z" fill="white"/>
</g>
</svg>
