<svg width="24" height="25" viewBox="0 0 24 25" fill="none" xmlns="http://www.w3.org/2000/svg">
<g id="Tanggal">
<path id="Vector" d="M8 14.936C7.71667 14.936 7.479 14.84 7.287 14.648C7.09567 14.4567 7 14.2194 7 13.936C7 13.6527 7.09567 13.415 7.287 13.223C7.479 13.0317 7.71667 12.936 8 12.936C8.28333 12.936 8.521 13.0317 8.713 13.223C8.90433 13.415 9 13.6527 9 13.936C9 14.2194 8.90433 14.4567 8.713 14.648C8.521 14.84 8.28333 14.936 8 14.936ZM12 14.936C11.7167 14.936 11.4793 14.84 11.288 14.648C11.096 14.4567 11 14.2194 11 13.936C11 13.6527 11.096 13.415 11.288 13.223C11.4793 13.0317 11.7167 12.936 12 12.936C12.2833 12.936 12.521 13.0317 12.713 13.223C12.9043 13.415 13 13.6527 13 13.936C13 14.2194 12.9043 14.4567 12.713 14.648C12.521 14.84 12.2833 14.936 12 14.936ZM16 14.936C15.7167 14.936 15.4793 14.84 15.288 14.648C15.096 14.4567 15 14.2194 15 13.936C15 13.6527 15.096 13.415 15.288 13.223C15.4793 13.0317 15.7167 12.936 16 12.936C16.2833 12.936 16.5207 13.0317 16.712 13.223C16.904 13.415 17 13.6527 17 13.936C17 14.2194 16.904 14.4567 16.712 14.648C16.5207 14.84 16.2833 14.936 16 14.936ZM5 22.936C4.45 22.936 3.979 22.7404 3.587 22.349C3.19567 21.957 3 21.486 3 20.936V6.93604C3 6.38604 3.19567 5.91537 3.587 5.52403C3.979 5.13204 4.45 4.93604 5 4.93604H6V3.91104C6 3.6277 6.09567 3.39437 6.287 3.21104C6.479 3.0277 6.71667 2.93604 7 2.93604C7.28333 2.93604 7.521 3.0317 7.713 3.22304C7.90433 3.41504 8 3.6527 8 3.93604V4.93604H16V3.91104C16 3.6277 16.096 3.39437 16.288 3.21104C16.4793 3.0277 16.7167 2.93604 17 2.93604C17.2833 2.93604 17.5207 3.0317 17.712 3.22304C17.904 3.41504 18 3.6527 18 3.93604V4.93604H19C19.55 4.93604 20.021 5.13204 20.413 5.52403C20.8043 5.91537 21 6.38604 21 6.93604V20.936C21 21.486 20.8043 21.957 20.413 22.349C20.021 22.7404 19.55 22.936 19 22.936H5ZM5 20.936H19V10.936H5V20.936Z" fill="black"/>
</g>
</svg>
