<svg width="30" height="31" viewBox="0 0 30 31" fill="none" xmlns="http://www.w3.org/2000/svg">
<g id="Tambah Kurang">
<path id="Vector" d="M15 27.98C11.6848 27.98 8.50537 26.663 6.16117 24.3188C3.81696 21.9746 2.5 18.7952 2.5 15.48C2.5 12.1648 3.81696 8.98535 6.16117 6.64115C8.50537 4.29694 11.6848 2.97998 15 2.97998C18.3152 2.97998 21.4946 4.29694 23.8388 6.64115C26.183 8.98535 27.5 12.1648 27.5 15.48C27.5 18.7952 26.183 21.9746 23.8388 24.3188C21.4946 26.663 18.3152 27.98 15 27.98ZM15 25.48C17.6522 25.48 20.1957 24.4264 22.0711 22.551C23.9464 20.6757 25 18.1321 25 15.48C25 12.8278 23.9464 10.2843 22.0711 8.40891C20.1957 6.53355 17.6522 5.47998 15 5.47998C12.3478 5.47998 9.8043 6.53355 7.92893 8.40891C6.05357 10.2843 5 12.8278 5 15.48C5 18.1321 6.05357 20.6757 7.92893 22.551C9.8043 24.4264 12.3478 25.48 15 25.48ZM21.25 14.23V16.73H8.75V14.23H21.25Z" fill="#AE171E"/>
</g>
</svg>
