<svg width="24" height="24" viewBox="0 0 24 24" fill="none" xmlns="http://www.w3.org/2000/svg">
<g id="pin lokasi">
<path id="Vector" d="M11.0008 22.9498V20.9498C8.91745 20.7165 7.12978 19.8541 5.63778 18.3628C4.14578 16.8715 3.28345 15.0838 3.05078 12.9998H1.05078V10.9998H3.05078C3.28411 8.91647 4.14678 7.1288 5.63878 5.6368C7.13078 4.1448 8.91811 3.28247 11.0008 3.0498V1.0498H13.0008V3.0498C15.0841 3.28314 16.8718 4.1458 18.3638 5.6378C19.8558 7.12981 20.7181 8.91714 20.9508 10.9998H22.9508V12.9998H20.9508C20.7174 15.0831 19.8551 16.8708 18.3638 18.3628C16.8724 19.8548 15.0848 20.7171 13.0008 20.9498V22.9498H11.0008ZM12.0008 18.9998C13.9341 18.9998 15.5841 18.3165 16.9508 16.9498C18.3174 15.5831 19.0008 13.9331 19.0008 11.9998C19.0008 10.0665 18.3174 8.41647 16.9508 7.0498C15.5841 5.68314 13.9341 4.9998 12.0008 4.9998C10.0674 4.9998 8.41745 5.68314 7.05078 7.0498C5.68411 8.41647 5.00078 10.0665 5.00078 11.9998C5.00078 13.9331 5.68411 15.5831 7.05078 16.9498C8.41745 18.3165 10.0674 18.9998 12.0008 18.9998ZM12.0008 15.9998C10.9008 15.9998 9.95912 15.6081 9.17578 14.8248C8.39245 14.0415 8.00078 13.0998 8.00078 11.9998C8.00078 10.8998 8.39245 9.95814 9.17578 9.1748C9.95912 8.39147 10.9008 7.9998 12.0008 7.9998C13.1008 7.9998 14.0424 8.39147 14.8258 9.1748C15.6091 9.95814 16.0008 10.8998 16.0008 11.9998C16.0008 13.0998 15.6091 14.0415 14.8258 14.8248C14.0424 15.6081 13.1008 15.9998 12.0008 15.9998ZM12.0008 13.9998C12.5508 13.9998 13.0218 13.8041 13.4138 13.4128C13.8058 13.0215 14.0014 12.5505 14.0008 11.9998C14.0008 11.4498 13.8048 10.9788 13.4128 10.5868C13.0208 10.1948 12.5501 9.99914 12.0008 9.9998C11.4508 9.9998 10.9798 10.1958 10.5878 10.5878C10.1958 10.9798 10.0001 11.4505 10.0008 11.9998C10.0008 12.5498 10.1968 13.0208 10.5888 13.4128C10.9808 13.8048 11.4514 14.0005 12.0008 13.9998Z" fill="#AE171E"/>
</g>
</svg>
