<svg width="21" height="24" viewBox="0 0 21 24" fill="none" xmlns="http://www.w3.org/2000/svg">
<g id="Group">
<path id="Vector" d="M10.4626 14.4153C8.08595 14.4153 6.14453 12.485 6.14453 10.0973C6.14453 7.70963 8.08595 5.79053 10.4626 5.79053C12.8391 5.79053 14.7806 7.72079 14.7806 10.1085C14.7806 12.4962 12.8391 14.4153 10.4626 14.4153ZM10.4626 7.46417C9.01208 7.46417 7.81817 8.64687 7.81817 10.1085C7.81817 11.5701 9.00092 12.7528 10.4626 12.7528C11.9242 12.7528 13.1069 11.5701 13.1069 10.1085C13.1069 8.64687 11.9131 7.46417 10.4626 7.46417Z" fill="#292D32"/>
<path id="Vector_2" d="M10.4621 24C8.81077 24 7.14827 23.3752 5.85399 22.1367C2.5625 18.9679 -1.07488 13.9135 0.297507 7.89958C1.536 2.44351 6.3003 0 10.4621 0H10.4733C14.635 0 19.3993 2.44351 20.6378 7.91074C21.9991 13.9247 18.3617 18.9679 15.0702 22.1367C13.7759 23.3752 12.1134 24 10.4621 24ZM10.4621 1.67364C7.21522 1.67364 3.04228 3.40307 1.93768 8.26778C0.732654 13.523 4.0353 18.053 7.02554 20.9205C8.95582 22.7838 11.9795 22.7838 13.9098 20.9205C16.8889 18.053 20.1915 13.523 19.0088 8.26778C17.8931 3.40307 13.709 1.67364 10.4621 1.67364Z" fill="#292D32"/>
</g>
</svg>
