<svg width="30" height="31" viewBox="0 0 30 31" fill="none" xmlns="http://www.w3.org/2000/svg">
<g id="Tambah Kurang">
<path id="Vector" d="M15 25.48C9.4875 25.48 5 20.9925 5 15.48C5 9.96748 9.4875 5.47998 15 5.47998C20.5125 5.47998 25 9.96748 25 15.48C25 20.9925 20.5125 25.48 15 25.48ZM15 2.97998C13.3585 2.97998 11.733 3.3033 10.2165 3.93149C8.69989 4.55967 7.3219 5.48041 6.16117 6.64115C3.81696 8.98535 2.5 12.1648 2.5 15.48C2.5 18.7952 3.81696 21.9746 6.16117 24.3188C7.3219 25.4795 8.69989 26.4003 10.2165 27.0285C11.733 27.6567 13.3585 27.98 15 27.98C18.3152 27.98 21.4946 26.663 23.8388 24.3188C26.183 21.9746 27.5 18.7952 27.5 15.48C27.5 13.8385 27.1767 12.213 26.5485 10.6964C25.9203 9.17987 24.9996 7.80188 23.8388 6.64115C22.6781 5.48041 21.3001 4.55967 19.7835 3.93149C18.267 3.3033 16.6415 2.97998 15 2.97998ZM16.25 9.22998H13.75V14.23H8.75V16.73H13.75V21.73H16.25V16.73H21.25V14.23H16.25V9.22998Z" fill="#AE171E"/>
</g>
</svg>
