<svg width="32" height="32" viewBox="0 0 32 32" fill="none" xmlns="http://www.w3.org/2000/svg">
<g id="Total Pasien">
<g id="Vector">
<mask id="path-1-inside-1_139_5333" fill="white">
<path d="M6 6.00019C6 4.93932 6.42143 3.9219 7.17157 3.17176C7.92172 2.42161 8.93913 2.00019 10 2.00019C11.0609 2.00019 12.0783 2.42161 12.8284 3.17176C13.5786 3.9219 14 4.93932 14 6.00019C14 7.06105 13.5786 8.07847 12.8284 8.82861C12.0783 9.57876 11.0609 10.0002 10 10.0002C8.93913 10.0002 7.92172 9.57876 7.17157 8.82861C6.42143 8.07847 6 7.06105 6 6.00019ZM10 4.00019C9.46957 4.00019 8.96086 4.2109 8.58579 4.58597C8.21071 4.96104 8 5.46975 8 6.00019C8 6.53062 8.21071 7.03933 8.58579 7.4144C8.96086 7.78947 9.46957 8.00019 10 8.00019C10.5304 8.00019 11.0391 7.78947 11.4142 7.4144C11.7893 7.03933 12 6.53062 12 6.00019C12 5.46975 11.7893 4.96104 11.4142 4.58597C11.0391 4.2109 10.5304 4.00019 10 4.00019ZM19.558 9.16819C19.139 8.84857 18.7873 8.44931 18.523 7.99334C18.2588 7.53737 18.0873 7.03369 18.0183 6.51122C17.9494 5.98876 17.9843 5.45782 18.1212 4.94891C18.2581 4.44 18.4941 3.96315 18.8159 3.54576C19.1376 3.12838 19.5387 2.77868 19.996 2.51677C20.4533 2.25486 20.9578 2.08589 21.4806 2.01958C22.0034 1.95327 22.5342 1.99093 23.0424 2.13038C23.5506 2.26983 24.0263 2.50834 24.442 2.83219C25.2606 3.48699 25.7894 4.43697 25.9147 5.47772C26.04 6.51847 25.7517 7.56681 25.1119 8.39718C24.4721 9.22754 23.5319 9.77356 22.4936 9.91775C21.4553 10.0619 20.3999 9.79278 19.558 9.16819ZM22 4.00019C21.4696 4.00019 20.9609 4.2109 20.5858 4.58597C20.2107 4.96104 20 5.46975 20 6.00019C20 6.53062 20.2107 7.03933 20.5858 7.4144C20.9609 7.78947 21.4696 8.00019 22 8.00019C22.5304 8.00019 23.0391 7.78947 23.4142 7.4144C23.7893 7.03933 24 6.53062 24 6.00019C24 5.46975 23.7893 4.96104 23.4142 4.58597C23.0391 4.2109 22.5304 4.00019 22 4.00019ZM5 12.0002H10.34C10.12 12.6262 10 13.3002 10 14.0002H5C4.73478 14.0002 4.48043 14.1055 4.29289 14.2931C4.10536 14.4806 4 14.735 4 15.0002C4 16.6342 4.65 17.8462 5.676 18.6702C6.148 19.0502 6.714 19.3562 7.354 19.5802C6.88402 20.0797 6.52184 20.6707 6.29 21.3162C5.61867 21.0465 4.9901 20.6807 4.424 20.2302C2.92 19.0202 2 17.2322 2 15.0002C2 14.2045 2.31607 13.4415 2.87868 12.8789C3.44129 12.3163 4.20435 12.0002 5 12.0002ZM12.536 12.0002C12.0056 12.9194 11.862 14.0117 12.137 15.0368C12.4119 16.0619 13.0828 16.9358 14.002 17.4662C14.9212 17.9966 16.0135 18.1402 17.0386 17.8652C18.0637 17.5903 18.9376 16.9194 19.468 16.0002C19.9984 15.0809 20.142 13.9886 19.867 12.9636C19.5921 11.9385 18.9212 11.0646 18.002 10.5342C17.0828 10.0038 15.9905 9.86021 14.9654 10.1351C13.9403 10.4101 13.0664 11.0809 12.536 12.0002ZM15.552 12.0502C15.845 11.984 16.1492 11.9845 16.442 12.0516C16.7349 12.1186 17.0089 12.2507 17.2439 12.4378C17.4788 12.625 17.6688 12.8626 17.7997 13.133C17.9305 13.4034 17.999 13.6998 18 14.0002C17.9998 14.3765 17.8935 14.7451 17.6933 15.0637C17.493 15.3823 17.2069 15.6379 16.8679 15.8012C16.5289 15.9645 16.1506 16.0289 15.7767 15.9869C15.4027 15.9448 15.0482 15.7982 14.7539 15.5637C14.4595 15.3293 14.2373 15.0165 14.1128 14.6614C13.9882 14.3063 13.9663 13.9233 14.0497 13.5563C14.133 13.1894 14.3182 12.8534 14.584 12.587C14.8497 12.3205 15.1853 12.1345 15.552 12.0502ZM26.324 18.6702C25.852 19.0502 25.286 19.3562 24.646 19.5802C25.1153 20.0799 25.4768 20.6708 25.708 21.3162C26.388 21.0382 27.018 20.6762 27.576 20.2302C29.08 19.0202 30 17.2322 30 15.0002C30 14.2045 29.6839 13.4415 29.1213 12.8789C28.5587 12.3163 27.7956 12.0002 27 12.0002H21.66C21.88 12.6262 22 13.3002 22 14.0002H27C27.2652 14.0002 27.5196 14.1055 27.7071 14.2931C27.8946 14.4806 28 14.735 28 15.0002C28 16.6342 27.35 17.8462 26.324 18.6702ZM21 20.0002C21.7956 20.0002 22.5587 20.3163 23.1213 20.8789C23.6839 21.4415 24 22.2045 24 23.0002C24 25.2322 23.082 27.0202 21.576 28.2302C20.094 29.4202 18.106 30.0002 16 30.0002C13.894 30.0002 11.906 29.4202 10.424 28.2302C8.92 27.0202 8 25.2322 8 23.0002C7.99894 22.6059 8.07582 22.2153 8.22621 21.8509C8.3766 21.4864 8.59754 21.1553 8.87633 20.8765C9.15511 20.5977 9.48625 20.3768 9.8507 20.2264C10.2152 20.076 10.6057 19.9991 11 20.0002H21ZM21 22.0002H11C10.7348 22.0002 10.4804 22.1055 10.2929 22.2931C10.1054 22.4806 10 22.735 10 23.0002C10 24.6342 10.65 25.8462 11.676 26.6702C12.728 27.5142 14.24 28.0002 16 28.0002C17.76 28.0002 19.272 27.5142 20.324 26.6702C21.35 25.8462 22 24.6342 22 23.0002C22 22.735 21.8946 22.4806 21.7071 22.2931C21.5196 22.1055 21.2652 22.0002 21 22.0002Z"/>
</mask>
<path d="M6 6.00019C6 4.93932 6.42143 3.9219 7.17157 3.17176C7.92172 2.42161 8.93913 2.00019 10 2.00019C11.0609 2.00019 12.0783 2.42161 12.8284 3.17176C13.5786 3.9219 14 4.93932 14 6.00019C14 7.06105 13.5786 8.07847 12.8284 8.82861C12.0783 9.57876 11.0609 10.0002 10 10.0002C8.93913 10.0002 7.92172 9.57876 7.17157 8.82861C6.42143 8.07847 6 7.06105 6 6.00019ZM10 4.00019C9.46957 4.00019 8.96086 4.2109 8.58579 4.58597C8.21071 4.96104 8 5.46975 8 6.00019C8 6.53062 8.21071 7.03933 8.58579 7.4144C8.96086 7.78947 9.46957 8.00019 10 8.00019C10.5304 8.00019 11.0391 7.78947 11.4142 7.4144C11.7893 7.03933 12 6.53062 12 6.00019C12 5.46975 11.7893 4.96104 11.4142 4.58597C11.0391 4.2109 10.5304 4.00019 10 4.00019ZM19.558 9.16819C19.139 8.84857 18.7873 8.44931 18.523 7.99334C18.2588 7.53737 18.0873 7.03369 18.0183 6.51122C17.9494 5.98876 17.9843 5.45782 18.1212 4.94891C18.2581 4.44 18.4941 3.96315 18.8159 3.54576C19.1376 3.12838 19.5387 2.77868 19.996 2.51677C20.4533 2.25486 20.9578 2.08589 21.4806 2.01958C22.0034 1.95327 22.5342 1.99093 23.0424 2.13038C23.5506 2.26983 24.0263 2.50834 24.442 2.83219C25.2606 3.48699 25.7894 4.43697 25.9147 5.47772C26.04 6.51847 25.7517 7.56681 25.1119 8.39718C24.4721 9.22754 23.5319 9.77356 22.4936 9.91775C21.4553 10.0619 20.3999 9.79278 19.558 9.16819ZM22 4.00019C21.4696 4.00019 20.9609 4.2109 20.5858 4.58597C20.2107 4.96104 20 5.46975 20 6.00019C20 6.53062 20.2107 7.03933 20.5858 7.4144C20.9609 7.78947 21.4696 8.00019 22 8.00019C22.5304 8.00019 23.0391 7.78947 23.4142 7.4144C23.7893 7.03933 24 6.53062 24 6.00019C24 5.46975 23.7893 4.96104 23.4142 4.58597C23.0391 4.2109 22.5304 4.00019 22 4.00019ZM5 12.0002H10.34C10.12 12.6262 10 13.3002 10 14.0002H5C4.73478 14.0002 4.48043 14.1055 4.29289 14.2931C4.10536 14.4806 4 14.735 4 15.0002C4 16.6342 4.65 17.8462 5.676 18.6702C6.148 19.0502 6.714 19.3562 7.354 19.5802C6.88402 20.0797 6.52184 20.6707 6.29 21.3162C5.61867 21.0465 4.9901 20.6807 4.424 20.2302C2.92 19.0202 2 17.2322 2 15.0002C2 14.2045 2.31607 13.4415 2.87868 12.8789C3.44129 12.3163 4.20435 12.0002 5 12.0002ZM12.536 12.0002C12.0056 12.9194 11.862 14.0117 12.137 15.0368C12.4119 16.0619 13.0828 16.9358 14.002 17.4662C14.9212 17.9966 16.0135 18.1402 17.0386 17.8652C18.0637 17.5903 18.9376 16.9194 19.468 16.0002C19.9984 15.0809 20.142 13.9886 19.867 12.9636C19.5921 11.9385 18.9212 11.0646 18.002 10.5342C17.0828 10.0038 15.9905 9.86021 14.9654 10.1351C13.9403 10.4101 13.0664 11.0809 12.536 12.0002ZM15.552 12.0502C15.845 11.984 16.1492 11.9845 16.442 12.0516C16.7349 12.1186 17.0089 12.2507 17.2439 12.4378C17.4788 12.625 17.6688 12.8626 17.7997 13.133C17.9305 13.4034 17.999 13.6998 18 14.0002C17.9998 14.3765 17.8935 14.7451 17.6933 15.0637C17.493 15.3823 17.2069 15.6379 16.8679 15.8012C16.5289 15.9645 16.1506 16.0289 15.7767 15.9869C15.4027 15.9448 15.0482 15.7982 14.7539 15.5637C14.4595 15.3293 14.2373 15.0165 14.1128 14.6614C13.9882 14.3063 13.9663 13.9233 14.0497 13.5563C14.133 13.1894 14.3182 12.8534 14.584 12.587C14.8497 12.3205 15.1853 12.1345 15.552 12.0502ZM26.324 18.6702C25.852 19.0502 25.286 19.3562 24.646 19.5802C25.1153 20.0799 25.4768 20.6708 25.708 21.3162C26.388 21.0382 27.018 20.6762 27.576 20.2302C29.08 19.0202 30 17.2322 30 15.0002C30 14.2045 29.6839 13.4415 29.1213 12.8789C28.5587 12.3163 27.7956 12.0002 27 12.0002H21.66C21.88 12.6262 22 13.3002 22 14.0002H27C27.2652 14.0002 27.5196 14.1055 27.7071 14.2931C27.8946 14.4806 28 14.735 28 15.0002C28 16.6342 27.35 17.8462 26.324 18.6702ZM21 20.0002C21.7956 20.0002 22.5587 20.3163 23.1213 20.8789C23.6839 21.4415 24 22.2045 24 23.0002C24 25.2322 23.082 27.0202 21.576 28.2302C20.094 29.4202 18.106 30.0002 16 30.0002C13.894 30.0002 11.906 29.4202 10.424 28.2302C8.92 27.0202 8 25.2322 8 23.0002C7.99894 22.6059 8.07582 22.2153 8.22621 21.8509C8.3766 21.4864 8.59754 21.1553 8.87633 20.8765C9.15511 20.5977 9.48625 20.3768 9.8507 20.2264C10.2152 20.076 10.6057 19.9991 11 20.0002H21ZM21 22.0002H11C10.7348 22.0002 10.4804 22.1055 10.2929 22.2931C10.1054 22.4806 10 22.735 10 23.0002C10 24.6342 10.65 25.8462 11.676 26.6702C12.728 27.5142 14.24 28.0002 16 28.0002C17.76 28.0002 19.272 27.5142 20.324 26.6702C21.35 25.8462 22 24.6342 22 23.0002C22 22.735 21.8946 22.4806 21.7071 22.2931C21.5196 22.1055 21.2652 22.0002 21 22.0002Z" fill="black" stroke="#1F1F1F" stroke-width="2" mask="url(#path-1-inside-1_139_5333)"/>
</g>
</g>
</svg>
