<svg width="24" height="24" viewBox="0 0 24 24" fill="none" xmlns="http://www.w3.org/2000/svg">
<g id="Transaksi">
<path id="Vector" d="M8.75 8.25C8.75 8.51522 8.64464 8.76957 8.45711 8.95711C8.26957 9.14464 8.01522 9.25 7.75 9.25C7.48478 9.25 7.23043 9.14464 7.04289 8.95711C6.85536 8.76957 6.75 8.51522 6.75 8.25C6.75 7.98478 6.85536 7.73043 7.04289 7.54289C7.23043 7.35536 7.48478 7.25 7.75 7.25C8.01522 7.25 8.26957 7.35536 8.45711 7.54289C8.64464 7.73043 8.75 7.98478 8.75 8.25ZM10.5 8.25C10.5 8.05109 10.579 7.86032 10.7197 7.71967C10.8603 7.57902 11.0511 7.5 11.25 7.5H16.75C16.9489 7.5 17.1397 7.57902 17.2803 7.71967C17.421 7.86032 17.5 8.05109 17.5 8.25C17.5 8.44891 17.421 8.63968 17.2803 8.78033C17.1397 8.92098 16.9489 9 16.75 9H11.25C11.0511 9 10.8603 8.92098 10.7197 8.78033C10.579 8.63968 10.5 8.44891 10.5 8.25ZM10.5 12C10.5 11.8011 10.579 11.6103 10.7197 11.4697C10.8603 11.329 11.0511 11.25 11.25 11.25H16.75C16.9489 11.25 17.1397 11.329 17.2803 11.4697C17.421 11.6103 17.5 11.8011 17.5 12C17.5 12.1989 17.421 12.3897 17.2803 12.5303C17.1397 12.671 16.9489 12.75 16.75 12.75H11.25C11.0511 12.75 10.8603 12.671 10.7197 12.5303C10.579 12.3897 10.5 12.1989 10.5 12ZM11.25 15C11.0511 15 10.8603 15.079 10.7197 15.2197C10.579 15.3603 10.5 15.5511 10.5 15.75C10.5 15.9489 10.579 16.1397 10.7197 16.2803C10.8603 16.421 11.0511 16.5 11.25 16.5H16.75C16.9489 16.5 17.1397 16.421 17.2803 16.2803C17.421 16.1397 17.5 15.9489 17.5 15.75C17.5 15.5511 17.421 15.3603 17.2803 15.2197C17.1397 15.079 16.9489 15 16.75 15H11.25ZM7.75 13C8.01522 13 8.26957 12.8946 8.45711 12.7071C8.64464 12.5196 8.75 12.2652 8.75 12C8.75 11.7348 8.64464 11.4804 8.45711 11.2929C8.26957 11.1054 8.01522 11 7.75 11C7.48478 11 7.23043 11.1054 7.04289 11.2929C6.85536 11.4804 6.75 11.7348 6.75 12C6.75 12.2652 6.85536 12.5196 7.04289 12.7071C7.23043 12.8946 7.48478 13 7.75 13ZM8.75 15.75C8.75 16.0152 8.64464 16.2696 8.45711 16.4571C8.26957 16.6446 8.01522 16.75 7.75 16.75C7.48478 16.75 7.23043 16.6446 7.04289 16.4571C6.85536 16.2696 6.75 16.0152 6.75 15.75C6.75 15.4848 6.85536 15.2304 7.04289 15.0429C7.23043 14.8554 7.48478 14.75 7.75 14.75C8.01522 14.75 8.26957 14.8554 8.45711 15.0429C8.64464 15.2304 8.75 15.4848 8.75 15.75ZM5.25 3C4.65326 3 4.08097 3.23705 3.65901 3.65901C3.23705 4.08097 3 4.65326 3 5.25V18.75C3 19.3467 3.23705 19.919 3.65901 20.341C4.08097 20.7629 4.65326 21 5.25 21H18.75C19.3467 21 19.919 20.7629 20.341 20.341C20.7629 19.919 21 19.3467 21 18.75V5.25C21 4.65326 20.7629 4.08097 20.341 3.65901C19.919 3.23705 19.3467 3 18.75 3H5.25ZM4.5 5.25C4.5 5.05109 4.57902 4.86032 4.71967 4.71967C4.86032 4.57902 5.05109 4.5 5.25 4.5H18.75C18.9489 4.5 19.1397 4.57902 19.2803 4.71967C19.421 4.86032 19.5 5.05109 19.5 5.25V18.75C19.5 18.9489 19.421 19.1397 19.2803 19.2803C19.1397 19.421 18.9489 19.5 18.75 19.5H5.25C5.05109 19.5 4.86032 19.421 4.71967 19.2803C4.57902 19.1397 4.5 18.9489 4.5 18.75V5.25Z" fill="#AE171E"/>
</g>
</svg>
