<svg width="32" height="32" viewBox="0 0 32 32" fill="none" xmlns="http://www.w3.org/2000/svg">
<g id="transportation">
<path id="Vector" d="M16.0003 5.3335H6.66699C5.60613 5.3335 4.58871 5.75492 3.83857 6.50507C3.08842 7.25521 2.66699 8.27263 2.66699 9.3335V20.0002C2.66699 21.061 3.08842 22.0784 3.83857 22.8286C4.58871 23.5787 5.60613 24.0002 6.66699 24.0002L5.33366 25.3335V26.6668H6.66699L9.33366 23.9602L12.0003 24.0002V17.3335H5.33366V8.00016H17.3337V10.6668H20.0003V9.3335C20.0003 8.27263 19.5789 7.25521 18.8288 6.50507C18.0786 5.75492 17.0612 5.3335 16.0003 5.3335ZM6.66699 18.6668C7.02061 18.6668 7.35975 18.8073 7.6098 19.0574C7.85985 19.3074 8.00033 19.6465 8.00033 20.0002C8.00033 20.3538 7.85985 20.6929 7.6098 20.943C7.35975 21.193 7.02061 21.3335 6.66699 21.3335C6.31337 21.3335 5.97423 21.193 5.72418 20.943C5.47413 20.6929 5.33366 20.3538 5.33366 20.0002C5.33366 19.6465 5.47413 19.3074 5.72418 19.0574C5.97423 18.8073 6.31337 18.6668 6.66699 18.6668ZM27.427 12.8802C27.2403 12.3468 26.7337 12.0002 26.1337 12.0002H16.547C15.9337 12.0002 15.4403 12.3468 15.2403 12.8802L13.3337 18.3602V25.7068C13.3337 26.2135 13.7603 26.6668 14.267 26.6668H15.0937C15.6003 26.6668 16.0003 26.1602 16.0003 25.6535V24.0002H26.667V25.6535C26.667 26.1602 27.0803 26.6668 27.587 26.6668H28.4003C28.907 26.6668 29.3337 26.2135 29.3337 25.7068V18.3602L27.427 12.8802ZM16.547 13.3335H26.1337L27.507 17.3335H15.1737L16.547 13.3335ZM16.0003 21.3335C15.6467 21.3335 15.3076 21.193 15.0575 20.943C14.8075 20.6929 14.667 20.3538 14.667 20.0002C14.667 19.6465 14.8075 19.3074 15.0575 19.0574C15.3076 18.8073 15.6467 18.6668 16.0003 18.6668C16.3539 18.6668 16.6931 18.8073 16.9431 19.0574C17.1932 19.3074 17.3337 19.6465 17.3337 20.0002C17.3337 20.3538 17.1932 20.6929 16.9431 20.943C16.6931 21.193 16.3539 21.3335 16.0003 21.3335ZM26.667 21.3335C26.3134 21.3335 25.9742 21.193 25.7242 20.943C25.4741 20.6929 25.3337 20.3538 25.3337 20.0002C25.3337 19.6465 25.4741 19.3074 25.7242 19.0574C25.9742 18.8073 26.3134 18.6668 26.667 18.6668C27.0206 18.6668 27.3598 18.8073 27.6098 19.0574C27.8599 19.3074 28.0003 19.6465 28.0003 20.0002C28.0003 20.3538 27.8599 20.6929 27.6098 20.943C27.3598 21.193 27.0206 21.3335 26.667 21.3335Z" fill="#1F1F1F"/>
</g>
</svg>
