<svg width="36" height="37" viewBox="0 0 36 37" fill="none" xmlns="http://www.w3.org/2000/svg">
<g id="ic:baseline-tiktok">
<path id="Vector" d="M24.9 9.18996C23.8746 8.01939 23.3096 6.51611 23.31 4.95996H18.675V23.56C18.6392 24.5665 18.2143 25.5199 17.4896 26.2194C16.765 26.9188 15.7972 27.3098 14.79 27.31C12.66 27.31 10.89 25.57 10.89 23.41C10.89 20.83 13.38 18.895 15.945 19.69V14.95C10.77 14.26 6.23999 18.28 6.23999 23.41C6.23999 28.405 10.38 31.96 14.775 31.96C19.485 31.96 23.31 28.135 23.31 23.41V13.975C25.1895 15.3247 27.446 16.0489 29.76 16.045V11.41C29.76 11.41 26.94 11.545 24.9 9.18996Z" fill="white"/>
</g>
</svg>
