<svg width="36" height="37" viewBox="0 0 36 37" fill="none" xmlns="http://www.w3.org/2000/svg">
<g id="ic:baseline-whatsapp">
<path id="Vector" d="M28.575 7.82505C27.1998 6.43594 25.5617 5.33455 23.7564 4.58513C21.9511 3.8357 20.0146 3.45324 18.06 3.46005C9.86995 3.46005 3.19495 10.135 3.19495 18.325C3.19495 20.9501 3.88495 23.5 5.17495 25.75L3.07495 33.46L10.95 31.3901C13.125 32.5751 15.57 33.205 18.06 33.205C26.25 33.205 32.925 26.5301 32.925 18.34C32.925 14.365 31.38 10.6301 28.575 7.82505ZM18.06 30.685C15.84 30.685 13.665 30.085 11.76 28.96L11.31 28.69L6.62995 29.92L7.87495 25.3601L7.57495 24.8951C6.34157 22.9255 5.68666 20.6489 5.68495 18.325C5.68495 11.515 11.235 5.96505 18.045 5.96505C21.3449 5.96505 24.45 7.25505 26.775 9.59505C27.9262 10.741 28.8385 12.104 29.459 13.6052C30.0796 15.1063 30.396 16.7157 30.39 18.34C30.42 25.15 24.87 30.685 18.06 30.685ZM24.84 21.445C24.465 21.265 22.635 20.365 22.305 20.23C21.96 20.1101 21.72 20.0501 21.465 20.41C21.21 20.785 20.5049 21.625 20.295 21.8651C20.085 22.1201 19.86 22.15 19.485 21.955C19.11 21.775 17.91 21.3701 16.5 20.1101C15.39 19.1201 14.655 17.9051 14.43 17.5301C14.22 17.1551 14.4 16.96 14.5949 16.765C14.76 16.6 14.97 16.33 15.15 16.12C15.33 15.91 15.405 15.745 15.525 15.505C15.645 15.25 15.585 15.0401 15.495 14.8601C15.405 14.6801 14.655 12.8501 14.3549 12.1001C14.055 11.3801 13.74 11.47 13.515 11.4551H12.795C12.54 11.4551 12.15 11.545 11.805 11.92C11.475 12.295 10.515 13.1951 10.515 15.0251C10.515 16.8551 11.85 18.6251 12.03 18.8651C12.21 19.1201 14.655 22.8701 18.375 24.475C19.26 24.865 19.95 25.09 20.49 25.2551C21.375 25.5401 22.185 25.495 22.83 25.405C23.55 25.3 25.035 24.505 25.3349 23.635C25.65 22.765 25.65 22.0301 25.545 21.8651C25.44 21.7001 25.215 21.625 24.84 21.445Z" fill="white"/>
</g>
</svg>
